<svg width="104" height="104" viewBox="0 0 104 104" fill="none" xmlns="http://www.w3.org/2000/svg">
<path d="M88.66 102.44L73.45 87.36L62.01 98.8L58.37 95.16C56.3767 93.1667 55.38 90.6967 55.38 87.75C55.38 84.8033 56.3767 82.3333 58.37 80.34L80.34 58.37C82.3333 56.3767 84.8033 55.38 87.75 55.38C90.6967 55.38 93.1667 56.3767 95.16 58.37L98.8 62.01L87.36 73.45L102.44 88.66C103.48 89.7 104 90.9133 104 92.3C104 93.6867 103.48 94.9 102.44 95.94L95.94 102.44C94.9 103.48 93.6867 104 92.3 104C90.9133 104 89.7 103.48 88.66 102.44ZM104 20.8L44.98 79.82L45.63 80.34C47.6233 82.3333 48.62 84.8033 48.62 87.75C48.62 90.6967 47.6233 93.1667 45.63 95.16L41.99 98.8L30.55 87.36L15.34 102.44C14.3 103.48 13.0867 104 11.7 104C10.3133 104 9.1 103.48 8.06 102.44L1.56 95.94C0.52 94.9 0 93.6867 0 92.3C0 90.9133 0.52 89.7 1.56 88.66L16.64 73.45L5.2 62.01L8.84 58.37C10.8333 56.3767 13.3033 55.38 16.25 55.38C19.1967 55.38 21.6667 56.3767 23.66 58.37L24.18 59.02L83.2 0H104V20.8ZM25.74 46.54L0 20.8V0H20.8L46.54 25.74L39.13 33.02L16.51 10.4H10.4V16.51L33.02 39.13L25.74 46.54ZM37.7 72.41L93.6 16.51V10.4H87.49L31.59 66.3L37.7 72.41Z" fill="#737373"/>
</svg>
