<svg width="106" height="104" viewBox="0 0 106 104" fill="none" xmlns="http://www.w3.org/2000/svg">
<path d="M38.46 104L36.38 87.36C35.2533 86.9267 34.1917 86.4067 33.195 85.8C32.1983 85.1933 31.2233 84.5433 30.27 83.85L14.8 90.35L0.5 65.65L13.89 55.51C13.8033 54.9033 13.76 54.3183 13.76 53.755V50.245C13.76 49.6817 13.8033 49.0967 13.89 48.49L0.5 38.35L14.8 13.65L30.27 20.15C31.2233 19.4567 32.22 18.8067 33.26 18.2C34.3 17.5933 35.34 17.0733 36.38 16.64L38.46 0H67.06L69.14 16.64C70.2667 17.0733 71.3283 17.5933 72.325 18.2C73.3217 18.8067 74.2967 19.4567 75.25 20.15L90.72 13.65L105.02 38.35L91.63 48.49C91.7167 49.0967 91.76 49.6817 91.76 50.245V53.755C91.76 54.3183 91.6733 54.9033 91.5 55.51L104.89 65.65L90.59 90.35L75.25 83.85C74.2967 84.5433 73.3 85.1933 72.26 85.8C71.22 86.4067 70.18 86.9267 69.14 87.36L67.06 104H38.46ZM47.56 93.6H57.83L59.65 79.82C62.3367 79.1267 64.8283 78.1083 67.125 76.765C69.4217 75.4217 71.5233 73.7967 73.43 71.89L86.3 77.22L91.37 68.38L80.19 59.93C80.6233 58.7167 80.9267 57.4383 81.1 56.095C81.2733 54.7517 81.36 53.3867 81.36 52C81.36 50.6133 81.2733 49.2483 81.1 47.905C80.9267 46.5617 80.6233 45.2833 80.19 44.07L91.37 35.62L86.3 26.78L73.43 32.24C71.5233 30.2467 69.4217 28.5783 67.125 27.235C64.8283 25.8917 62.3367 24.8733 59.65 24.18L57.96 10.4H47.69L45.87 24.18C43.1833 24.8733 40.6917 25.8917 38.395 27.235C36.0983 28.5783 33.9967 30.2033 32.09 32.11L19.22 26.78L14.15 35.62L25.33 43.94C24.8967 45.24 24.5933 46.54 24.42 47.84C24.2467 49.14 24.16 50.5267 24.16 52C24.16 53.3867 24.2467 54.73 24.42 56.03C24.5933 57.33 24.8967 58.63 25.33 59.93L14.15 68.38L19.22 77.22L32.09 71.76C33.9967 73.7533 36.0983 75.4217 38.395 76.765C40.6917 78.1083 43.1833 79.1267 45.87 79.82L47.56 93.6ZM53.02 70.2C58.0467 70.2 62.3367 68.4233 65.89 64.87C69.4433 61.3167 71.22 57.0267 71.22 52C71.22 46.9733 69.4433 42.6833 65.89 39.13C62.3367 35.5767 58.0467 33.8 53.02 33.8C47.9067 33.8 43.595 35.5767 40.085 39.13C36.575 42.6833 34.82 46.9733 34.82 52C34.82 57.0267 36.575 61.3167 40.085 64.87C43.595 68.4233 47.9067 70.2 53.02 70.2Z" fill="#737373"/>
</svg>
