<svg width="94" height="104" viewBox="0 0 94 104" fill="none" xmlns="http://www.w3.org/2000/svg">
<path d="M28.7494 93.6H64.492L69.672 72.8H23.5693L28.7494 93.6ZM28.7494 104C26.3321 104 24.2169 103.263 22.4038 101.79C20.5908 100.317 19.3821 98.41 18.7778 96.07L12.9502 72.8H80.2912L74.4636 96.07C73.8593 98.41 72.6506 100.317 70.8375 101.79C69.0245 103.263 66.9093 104 64.492 104H28.7494ZM10.3602 62.4H82.8812V52H10.3602V62.4ZM46.6207 31.2C46.6207 22.5333 49.6424 15.1667 55.6858 9.1C61.7292 3.03333 69.0677 0 77.7011 0C77.7011 7.8 75.2406 14.56 70.3195 20.28C65.3985 26 59.2255 29.4667 51.8008 30.68V41.6H93.2414V62.4C93.2414 65.26 92.2269 67.7083 90.1981 69.745C88.1692 71.7817 85.7303 72.8 82.8812 72.8H10.3602C7.51111 72.8 5.07216 71.7817 3.04329 69.745C1.01443 67.7083 0 65.26 0 62.4V41.6H41.4406V30.68C34.0158 29.4667 27.8429 26 22.9218 20.28C18.0008 14.56 15.5402 7.8 15.5402 0C24.1737 0 31.5121 3.03333 37.5556 9.1C43.599 15.1667 46.6207 22.5333 46.6207 31.2Z" fill="#737373"/>
</svg>
