<svg width="142" height="104" viewBox="0 0 142 104" fill="none" xmlns="http://www.w3.org/2000/svg">
<path d="M0.362488 104L22.7875 59.15C23.8708 56.9833 25.4146 55.25 27.4187 53.95C29.4229 52.65 31.6708 52 34.1625 52C36.7625 52 39.1458 52.6771 41.3125 54.0312C43.4792 55.3854 45.05 57.3083 46.025 59.8L50.4125 70.525C50.6292 71.175 51.1167 71.4729 51.875 71.4187C52.6333 71.3646 53.1208 71.0125 53.3375 70.3625L67.3125 23.725C68.8292 18.525 71.7271 14.3542 76.0062 11.2125C80.2854 8.07083 85.1333 6.5 90.55 6.5C95.8583 6.5 100.598 8.04375 104.769 11.1312C108.94 14.2187 111.837 18.2542 113.462 23.2375L141.575 104H127.762L101.112 27.3C100.246 24.8083 98.8917 22.8854 97.05 21.5312C95.2083 20.1771 93.0417 19.5 90.55 19.5C88.0583 19.5 85.8646 20.2042 83.9687 21.6125C82.0729 23.0208 80.6917 24.9708 79.825 27.4625L65.85 74.1C64.875 77.1333 63.1146 79.625 60.5687 81.575C58.0229 83.525 55.125 84.5 51.875 84.5C48.95 84.5 46.2417 83.7146 43.75 82.1437C41.2583 80.5729 39.4708 78.3792 38.3875 75.5625L34 64.8375L14.825 104H0.362488ZM31.8875 39C26.4708 39 21.8667 37.0771 18.075 33.2312C14.2833 29.3854 12.3875 24.8083 12.3875 19.5C12.3875 14.0833 14.2833 9.47917 18.075 5.6875C21.8667 1.89583 26.4708 0 31.8875 0C37.3042 0 41.9083 1.89583 45.7 5.6875C49.4917 9.47917 51.3875 14.0833 51.3875 19.5C51.3875 24.8083 49.4917 29.3854 45.7 33.2312C41.9083 37.0771 37.3042 39 31.8875 39ZM31.8875 26C33.7292 26 35.2729 25.3771 36.5187 24.1312C37.7646 22.8854 38.3875 21.3417 38.3875 19.5C38.3875 17.6583 37.7646 16.1146 36.5187 14.8687C35.2729 13.6229 33.7292 13 31.8875 13C30.0458 13 28.5021 13.6229 27.2562 14.8687C26.0104 16.1146 25.3875 17.6583 25.3875 19.5C25.3875 21.3417 26.0104 22.8854 27.2562 24.1312C28.5021 25.3771 30.0458 26 31.8875 26Z" fill="#737373"/>
</svg>
