<svg width="143" height="104" viewBox="0 0 143 104" fill="none" xmlns="http://www.w3.org/2000/svg">
<path d="M84.5 58.5C79.0833 58.5 74.4792 56.6042 70.6875 52.8125C66.8958 49.0208 65 44.4167 65 39C65 33.5833 66.8958 28.9792 70.6875 25.1875C74.4792 21.3958 79.0833 19.5 84.5 19.5C89.9167 19.5 94.5208 21.3958 98.3125 25.1875C102.104 28.9792 104 33.5833 104 39C104 44.4167 102.104 49.0208 98.3125 52.8125C94.5208 56.6042 89.9167 58.5 84.5 58.5ZM39 78C35.425 78 32.3646 76.7271 29.8187 74.1812C27.2729 71.6354 26 68.575 26 65V13C26 9.425 27.2729 6.36458 29.8187 3.81875C32.3646 1.27292 35.425 0 39 0H130C133.575 0 136.635 1.27292 139.181 3.81875C141.727 6.36458 143 9.425 143 13V65C143 68.575 141.727 71.6354 139.181 74.1812C136.635 76.7271 133.575 78 130 78H39ZM52 65H117C117 61.425 118.273 58.3646 120.819 55.8187C123.365 53.2729 126.425 52 130 52V26C126.425 26 123.365 24.7271 120.819 22.1812C118.273 19.6354 117 16.575 117 13H52C52 16.575 50.7271 19.6354 48.1812 22.1812C45.6354 24.7271 42.575 26 39 26V52C42.575 52 45.6354 53.2729 48.1812 55.8187C50.7271 58.3646 52 61.425 52 65ZM123.5 104H13C9.425 104 6.36458 102.727 3.81875 100.181C1.27292 97.6354 0 94.575 0 91V19.5H13V91H123.5V104Z" fill="#737373"/>
</svg>
