<svg width="153" height="104" viewBox="0 0 153 104" fill="none" xmlns="http://www.w3.org/2000/svg">
<path d="M79.4354 81.8583L137.411 23.8825L128.412 14.8833L70.4362 72.859L79.4354 81.8583ZM34.2663 96.9146C22.7288 96.3378 14.1334 93.9149 8.48003 89.646C2.82668 85.3772 0 79.2046 0 71.1284C0 63.6291 3.08627 57.5431 9.25881 52.8704C15.4314 48.1977 23.9979 45.3999 34.9585 44.4769C39.4581 44.1308 42.8328 43.4097 45.0826 42.3136C47.3324 41.2176 48.4573 39.6889 48.4573 37.7275C48.4573 34.7277 46.7556 32.4779 43.352 30.9781C39.9485 29.4782 34.3239 28.3821 26.4785 27.6899L27.6899 13.8449C39.5735 14.7679 48.3131 17.162 53.9088 21.027C59.5044 24.8921 62.3023 30.4589 62.3023 37.7275C62.3023 43.8423 60.0813 48.6304 55.6394 52.0916C51.1975 55.5529 44.65 57.6296 35.9969 58.3218C28.6129 58.8987 23.0749 60.2544 19.3829 62.3888C15.6909 64.5232 13.8449 67.4364 13.8449 71.1284C13.8449 75.1665 15.4602 78.0797 18.6907 79.868C21.9212 81.6564 27.3438 82.7236 34.9585 83.0697L34.2663 96.9146ZM82.7236 98.1261L54.1684 69.5709L120.278 3.46124C122.585 1.15375 125.326 0 128.498 0C131.671 0 134.411 1.15375 136.719 3.46124L148.833 15.5756C151.141 17.8831 152.294 20.6232 152.294 23.796C152.294 26.9688 151.141 29.709 148.833 32.0164L82.7236 98.1261ZM55.2067 103.837C53.2454 104.299 51.5148 103.779 50.0149 102.28C48.515 100.78 47.9958 99.0491 48.4573 97.0877L54.1684 69.5709L82.7236 98.1261L55.2067 103.837Z" fill="#737373"/>
</svg>
