<svg width="105" height="104" viewBox="0 0 105 104" fill="none" xmlns="http://www.w3.org/2000/svg">
<path d="M20.52 78.52C24.94 75.14 29.88 72.475 35.34 70.525C40.8 68.575 46.52 67.6 52.5 67.6C58.48 67.6 64.2 68.575 69.66 70.525C75.12 72.475 80.06 75.14 84.48 78.52C87.5133 74.9667 89.875 70.9367 91.565 66.43C93.255 61.9233 94.1 57.1133 94.1 52C94.1 40.4733 90.0483 30.6583 81.945 22.555C73.8417 14.4517 64.0267 10.4 52.5 10.4C40.9733 10.4 31.1583 14.4517 23.055 22.555C14.9517 30.6583 10.9 40.4733 10.9 52C10.9 57.1133 11.745 61.9233 13.435 66.43C15.125 70.9367 17.4867 74.9667 20.52 78.52ZM52.5 57.2C47.3867 57.2 43.075 55.445 39.565 51.935C36.055 48.425 34.3 44.1133 34.3 39C34.3 33.8867 36.055 29.575 39.565 26.065C43.075 22.555 47.3867 20.8 52.5 20.8C57.6133 20.8 61.925 22.555 65.435 26.065C68.945 29.575 70.7 33.8867 70.7 39C70.7 44.1133 68.945 48.425 65.435 51.935C61.925 55.445 57.6133 57.2 52.5 57.2ZM52.5 104C45.3067 104 38.5467 102.635 32.22 99.905C25.8933 97.175 20.39 93.47 15.71 88.79C11.03 84.11 7.325 78.6067 4.595 72.28C1.865 65.9533 0.5 59.1933 0.5 52C0.5 44.8067 1.865 38.0467 4.595 31.72C7.325 25.3933 11.03 19.89 15.71 15.21C20.39 10.53 25.8933 6.825 32.22 4.095C38.5467 1.365 45.3067 0 52.5 0C59.6933 0 66.4533 1.365 72.78 4.095C79.1067 6.825 84.61 10.53 89.29 15.21C93.97 19.89 97.675 25.3933 100.405 31.72C103.135 38.0467 104.5 44.8067 104.5 52C104.5 59.1933 103.135 65.9533 100.405 72.28C97.675 78.6067 93.97 84.11 89.29 88.79C84.61 93.47 79.1067 97.175 72.78 99.905C66.4533 102.635 59.6933 104 52.5 104ZM52.5 93.6C57.0933 93.6 61.4267 92.9283 65.5 91.585C69.5733 90.2417 73.3 88.3133 76.68 85.8C73.3 83.2867 69.5733 81.3583 65.5 80.015C61.4267 78.6717 57.0933 78 52.5 78C47.9067 78 43.5733 78.6717 39.5 80.015C35.4267 81.3583 31.7 83.2867 28.32 85.8C31.7 88.3133 35.4267 90.2417 39.5 91.585C43.5733 92.9283 47.9067 93.6 52.5 93.6ZM52.5 46.8C54.7533 46.8 56.6167 46.0633 58.09 44.59C59.5633 43.1167 60.3 41.2533 60.3 39C60.3 36.7467 59.5633 34.8833 58.09 33.41C56.6167 31.9367 54.7533 31.2 52.5 31.2C50.2467 31.2 48.3833 31.9367 46.91 33.41C45.4367 34.8833 44.7 36.7467 44.7 39C44.7 41.2533 45.4367 43.1167 46.91 44.59C48.3833 46.0633 50.2467 46.8 52.5 46.8Z" fill="#737373"/>
</svg>
